HIERARCHY
ROOT hip
{
  OFFSET 5.51535 103.731 -2.80141
  CHANNELS 6 Xposition Yposition Zposition Zrotation Xrotation Yrotation
  JOINT abdomen
  {
    OFFSET 0 -1.186 -1.5018
    CHANNELS 6 Xposition Yposition Zposition Zrotation Xrotation Yrotation
    JOINT abdomen2
    {
      OFFSET 0 9.964 0.2134
      CHANNELS 6 Xposition Yposition Zposition Zrotation Xrotation Yrotation
      JOINT chest
      {
        OFFSET 0 13.134 -3.2573
        CHANNELS 6 Xposition Yposition Zposition Zrotation Xrotation Yrotation
        JOINT neck
        {
          OFFSET 0 20.686 -1.6905
          CHANNELS 6 Xposition Yposition Zposition Zrotation Xrotation Yrotation
          JOINT head
          {
            OFFSET 0 7.23801 -0.1237
            CHANNELS 6 Xposition Yposition Zposition Zrotation Xrotation Yrotation
            End Site
            {
              OFFSET 0 0 0
            }
          }
        }
        JOINT lCollar
        {
          OFFSET 1.7069 20.075 5.0056
          CHANNELS 6 Xposition Yposition Zposition Zrotation Xrotation Yrotation
          JOINT lShldr
          {
            OFFSET 13.6458 -0.0470195 -4.849
            CHANNELS 6 Xposition Yposition Zposition Zrotation Xrotation Yrotation
            JOINT lForeArm
            {
              OFFSET 28.3255 -0.97589 2.2888
              CHANNELS 6 Xposition Yposition Zposition Zrotation Xrotation Yrotation
              JOINT lHand
              {
                OFFSET 22.1583 -0.529998 10.8316
                CHANNELS 6 Xposition Yposition Zposition Zrotation Xrotation Yrotation
                JOINT lThumb1
                {
                  OFFSET 0.786 0.111997 2.5817
                  CHANNELS 6 Xposition Yposition Zposition Zrotation Xrotation Yrotation
                  JOINT lThumb2
                  {
                    OFFSET 0.360097 -0.877999 4.2331
                    CHANNELS 6 Xposition Yposition Zposition Zrotation Xrotation Yrotation
                    JOINT lThumb2_End
                    {
                      OFFSET 1.8127 -1.21601 2.2227
                      CHANNELS 6 Xposition Yposition Zposition Zrotation Xrotation Yrotation
                      End Site
                      {
                        OFFSET 0.0180981 -0.012195 0.0222007
                      }
                    }
                  }
                }
                JOINT lCarpal1
                {
                  OFFSET 0.9571 1.114 1.7695
                  CHANNELS 6 Xposition Yposition Zposition Zrotation Xrotation Yrotation
                  JOINT lIndex1
                  {
                    OFFSET 4.12461 0.486992 4.1451
                    CHANNELS 6 Xposition Yposition Zposition Zrotation Xrotation Yrotation
                    JOINT lIndex2
                    {
                      OFFSET 3.4052 -1.45401 2.7682
                      CHANNELS 6 Xposition Yposition Zposition Zrotation Xrotation Yrotation
                      JOINT lIndex2_End
                      {
                        OFFSET 1.45309 -1.79499 1.2713
                        CHANNELS 6 Xposition Yposition Zposition Zrotation Xrotation Yrotation
                        End Site
                        {
                          OFFSET 0.0144979 -0.0179083 0.0126995
                        }
                      }
                    }
                  }
                  JOINT lMid1
                  {
                    OFFSET 5.6954 0.209987 2.1184
                    CHANNELS 6 Xposition Yposition Zposition Zrotation Xrotation Yrotation
                    JOINT lMid2
                    {
                      OFFSET 3.9766 -1.53999 2.3863
                      CHANNELS 6 Xposition Yposition Zposition Zrotation Xrotation Yrotation
                      JOINT lMid2_End
                      {
                        OFFSET 1.4042 -1.926 1.125
                        CHANNELS 6 Xposition Yposition Zposition Zrotation Xrotation Yrotation
                        End Site
                        {
                          OFFSET 0.013999 -0.0193044 0.011301
                        }
                      }
                    }
                  }
                }
                JOINT lCarpal2
                {
                  OFFSET 2.0956 0.66 -0.3894
                  CHANNELS 6 Xposition Yposition Zposition Zrotation Xrotation Yrotation
                  JOINT lRing1
                  {
                    OFFSET 5.0395 -0.090013 2.4971
                    CHANNELS 6 Xposition Yposition Zposition Zrotation Xrotation Yrotation
                    JOINT lRing2
                    {
                      OFFSET 3.7921 -1.55199 1.4806
                      CHANNELS 6 Xposition Yposition Zposition Zrotation Xrotation Yrotation
                      JOINT lRing2_End
                      {
                        OFFSET 1.4655 -1.808 0.9609
                        CHANNELS 6 Xposition Yposition Zposition Zrotation Xrotation Yrotation
                        End Site
                        {
                          OFFSET 0.0147015 -0.0181014 0.00959957
                        }
                      }
                    }
                  }
                  JOINT lPinky1
                  {
                    OFFSET 4.9141 -1.269 0.3591
                    CHANNELS 6 Xposition Yposition Zposition Zrotation Xrotation Yrotation
                    JOINT lPinky2
                    {
                      OFFSET 3.1477 -1.685 0.8462
                      CHANNELS 6 Xposition Yposition Zposition Zrotation Xrotation Yrotation
                      JOINT lPinky2_End
                      {
                        OFFSET 0.805498 -1.58501 0.795499
                        CHANNELS 6 Xposition Yposition Zposition Zrotation Xrotation Yrotation
                        End Site
                        {
                          OFFSET 0.00809703 -0.0157944 0.00799848
                        }
                      }
                    }
                  }
                }
              }
            }
          }
        }
        JOINT rCollar
        {
          OFFSET -1.7069 20.075 5.0056
          CHANNELS 6 Xposition Yposition Zposition Zrotation Xrotation Yrotation
          JOINT rShldr
          {
            OFFSET -13.6458 -0.0470107 -4.849
            CHANNELS 6 Xposition Yposition Zposition Zrotation Xrotation Yrotation
            JOINT rForeArm
            {
              OFFSET -28.3255 -0.975895 2.2888
              CHANNELS 6 Xposition Yposition Zposition Zrotation Xrotation Yrotation
              JOINT rHand
              {
                OFFSET -22.1583 -0.530007 10.8316
                CHANNELS 6 Xposition Yposition Zposition Zrotation Xrotation Yrotation
                JOINT rThumb1
                {
                  OFFSET -0.785997 0.112005 2.5817
                  CHANNELS 6 Xposition Yposition Zposition Zrotation Xrotation Yrotation
                  JOINT rThumb2
                  {
                    OFFSET -0.360106 -0.877994 4.2331
                    CHANNELS 6 Xposition Yposition Zposition Zrotation Xrotation Yrotation
                    JOINT rThumb2_End
                    {
                      OFFSET -1.8127 -1.216 2.2227
                      CHANNELS 6 Xposition Yposition Zposition Zrotation Xrotation Yrotation
                      End Site
                      {
                        OFFSET -0.0180972 -0.0121973 0.0222005
                      }
                    }
                  }
                }
                JOINT rCarpal1
                {
                  OFFSET -0.9571 1.114 1.7695
                  CHANNELS 6 Xposition Yposition Zposition Zrotation Xrotation Yrotation
                  JOINT rIndex1
                  {
                    OFFSET -4.1246 0.487011 4.1451
                    CHANNELS 6 Xposition Yposition Zposition Zrotation Xrotation Yrotation
                    JOINT rIndex2
                    {
                      OFFSET -3.4052 -1.45401 2.7682
                      CHANNELS 6 Xposition Yposition Zposition Zrotation Xrotation Yrotation
                      JOINT rIndex2_End
                      {
                        OFFSET -1.4531 -1.795 1.2713
                        CHANNELS 6 Xposition Yposition Zposition Zrotation Xrotation Yrotation
                        End Site
                        {
                          OFFSET -0.0145077 -0.0180048 0.0127017
                        }
                      }
                    }
                  }
                  JOINT rMid1
                  {
                    OFFSET -5.6954 0.210002 2.1184
                    CHANNELS 6 Xposition Yposition Zposition Zrotation Xrotation Yrotation
                    JOINT rMid2
                    {
                      OFFSET -3.9766 -1.54 2.3863
                      CHANNELS 6 Xposition Yposition Zposition Zrotation Xrotation Yrotation
                      JOINT rMid2_End
                      {
                        OFFSET -1.4042 -1.926 1.125
                        CHANNELS 6 Xposition Yposition Zposition Zrotation Xrotation Yrotation
                        End Site
                        {
                          OFFSET -0.0139948 -0.0192916 0.0112994
                        }
                      }
                    }
                  }
                }
                JOINT rCarpal2
                {
                  OFFSET -2.0956 0.66 -0.3894
                  CHANNELS 6 Xposition Yposition Zposition Zrotation Xrotation Yrotation
                  JOINT rRing1
                  {
                    OFFSET -5.03951 -0.0899879 2.4971
                    CHANNELS 6 Xposition Yposition Zposition Zrotation Xrotation Yrotation
                    JOINT rRing2
                    {
                      OFFSET -3.7921 -1.55201 1.4806
                      CHANNELS 6 Xposition Yposition Zposition Zrotation Xrotation Yrotation
                      JOINT rRing2_End
                      {
                        OFFSET -1.4655 -1.808 0.960901
                        CHANNELS 6 Xposition Yposition Zposition Zrotation Xrotation Yrotation
                        End Site
                        {
                          OFFSET -0.0146934 -0.0180999 0.00959832
                        }
                      }
                    }
                  }
                  JOINT rPinky1
                  {
                    OFFSET -4.91411 -1.26899 0.359202
                    CHANNELS 6 Xposition Yposition Zposition Zrotation Xrotation Yrotation
                    JOINT rPinky2
                    {
                      OFFSET -3.14769 -1.68501 0.846199
                      CHANNELS 6 Xposition Yposition Zposition Zrotation Xrotation Yrotation
                      JOINT rPinky2_End
                      {
                        OFFSET -0.805498 -1.585 0.7955
                        CHANNELS 6 Xposition Yposition Zposition Zrotation Xrotation Yrotation
                        End Site
                        {
                          OFFSET -0.00810035 -0.0158035 0.00800029
                        }
                      }
                    }
                  }
                }
              }
            }
          }
        }
      }
    }
  }
  JOINT lThigh
  {
    OFFSET 8.367 -8.2066 0.5982
    CHANNELS 6 Xposition Yposition Zposition Zrotation Xrotation Yrotation
    JOINT lShin
    {
      OFFSET 2.1923 -43.463 -0.4932
      CHANNELS 6 Xposition Yposition Zposition Zrotation Xrotation Yrotation
      JOINT lFoot
      {
        OFFSET 0.733301 -45.8593 -2.6451
        CHANNELS 6 Xposition Yposition Zposition Zrotation Xrotation Yrotation
        End Site
        {
          OFFSET 2.6618 -4.2699 12.3931
        }
      }
    }
  }
  JOINT rThigh
  {
    OFFSET -8.367 -8.2066 0.5982
    CHANNELS 6 Xposition Yposition Zposition Zrotation Xrotation Yrotation
    JOINT rShin
    {
      OFFSET -2.1923 -43.463 -0.4931
      CHANNELS 6 Xposition Yposition Zposition Zrotation Xrotation Yrotation
      JOINT rFoot
      {
        OFFSET -0.733299 -45.8593 -2.6451
        CHANNELS 6 Xposition Yposition Zposition Zrotation Xrotation Yrotation
        End Site
        {
          OFFSET -2.6618 -4.2699 12.3931
        }
      }
    }
  }
}
MOTION
Frames:	4
Frame Time:	0.0333333
-30.5519 17.8366 70.3932 10.1807 -64.7109 21.1565 4.35611e-007 -1.186 -1.5018 -0.117314 -7.04079 0.342204 3.86598e-007 9.964 0.2134 -0.194107 -14.0822 0.677526 -1.91741e-007 13.134 -3.2573 -0.194106 -14.0822 0.677525 -1.72656e-006 20.686 -1.6905 0.374478 -0.65559 -5.68354 -1.52396e-007 7.23801 -0.123698 17.7696 4.87548 -1.56817 1.7069 20.075 5.0056 5.16432 -1.47317 -15.364 13.6458 -0.0470137 -4.849 -57.9952 -3.09324 -55.9521 28.3255 -0.97588 2.2888 -24.1575 -24.1292 -76.243 22.1583 -0.529995 10.8316 -3.80695 23.6787 -28.7023 0.786003 0.111996 2.5817 29.0016 36.8209 -34.7961 0.360098 -0.878 4.2331 -6.33696 -0.117376 -11.5743 1.8127 -1.21601 2.2227 6.48487 1.48419 12.0601 0.9571 1.114 1.7695 4.96564e-032 3.57812e-015 -7.95139e-016 4.1246 0.486992 4.1451 -4.88733 4.53875 12.6178 3.4052 -1.45401 2.7682 -36.3636 10.0331 17.8992 1.4531 -1.79499 1.2713 -37.4308 10.1383 18.481 5.6954 0.209987 2.1184 -1.58699 -0.577034 1.61796 3.9766 -1.53999 2.3863 -43.8285 12.1762 22.7531 1.4042 -1.926 1.125 -9.03147 4.06784 4.02299 2.0956 0.66 -0.3894 4.96564e-032 3.57812e-015 -7.95139e-016 5.0395 -0.0900113 2.4971 -8.4409 -1.9482 5.79522 3.7921 -1.55199 1.4806 -14.2679 6.48286 7.41463 1.4655 -1.808 0.960899 -15.7292 7.01804 8.2348 4.9141 -1.269 0.359103 10.4038 -12.5937 2.33173 3.1477 -1.685 0.846202 -18.2187 8.51737 9.60863 0.805498 -1.58501 0.795499 -8.80554 4.59362 4.39817 -1.7069 20.075 5.0056 -21.1026 -0.0895015 -2.50509 -13.6458 -0.0470123 -4.849 57.902 -4.34199 76.8614 -28.3255 -0.975883 2.2888 -0.531265 -3.09117 33.9626 -22.1583 -0.53001 10.8316 4.73012 -8.76506 37.7917 -0.786001 0.112004 2.5817 -23.2934 46.7512 30.6779 -0.360102 -0.877993 4.2331 4.57599 -3.14006 12.9017 -1.8127 -1.216 2.2227 -7.0539 9.98963 -27.8099 -0.9571 1.114 1.7695 6.36111e-015 1.59028e-015 -0 -4.12461 0.48701 4.1451 22.4326 7.18755 -14.4624 -3.4052 -1.45401 2.7682 39.327 10.0708 -9.22203 -1.4531 -1.795 1.2713 40.1701 10.2034 -9.48224 -5.6954 0.210002 2.1184 6.18727 0.992226 -2.02835 -3.9766 -1.54 2.3863 51.3578 13.422 -13.763 -1.4042 -1.926 1.125 14.2807 5.03454 -2.5871 -2.0956 0.66 -0.3894 6.36111e-015 1.59028e-015 -0 -5.03951 -0.0899885 2.4971 13.5939 -0.619325 -5.16263 -3.7921 -1.55201 1.4806 20.0871 7.41465 -4.91538 -1.4655 -1.808 0.960902 21.6808 7.90919 -5.40317 -4.91411 -1.26899 0.359203 -10.8188 -10.1309 -6.16945 -3.1477 -1.68501 0.846197 20.7191 8.26829 -4.96128 -0.805501 -1.585 0.795499 10.5212 4.46526 -2.16974 8.367 -8.2066 0.598199 36.3621 -37.0134 15.5928 2.19231 -43.463 -0.493194 -0.0251441 22.9597 -0.370904 0.733297 -45.8593 -2.6451 -9.35301 13.8783 -14.9977 -8.367 -8.2066 0.598203 -26.7375 -13.7735 -7.42001 -2.1923 -43.463 -0.493101 0.647099 -0.648914 4.45905 -0.733302 -45.8593 -2.64511 12.3603 17.8579 -2.2127 
-30.5279 17.8074 70.4086 10.349 -64.9144 21.2139 9.01788e-008 -1.186 -1.5018 -0.0678124 -6.95726 0.364131 -3.82556e-008 9.964 0.2134 -0.0917173 -13.9148 0.728048 -1.3257e-006 13.134 -3.2573 -0.0917215 -13.9148 0.728045 -7.73802e-006 20.686 -1.69049 0.473126 -1.04613 -5.40231 4.98017e-006 7.23803 -0.123698 17.9366 4.89477 -1.43953 1.7069 20.075 5.0056 5.13321 -1.48074 -15.5371 13.6458 -0.0470125 -4.849 -58.2042 -2.94552 -56.1855 28.3255 -0.975888 2.28879 -24.4629 -24.8193 -76.469 22.1583 -0.529984 10.8316 -4.09326 24.4872 -28.6569 0.786003 0.111997 2.5817 29.0016 36.8209 -34.7961 0.360098 -0.877998 4.2331 -6.33696 -0.117386 -11.5743 1.8127 -1.21601 2.2227 6.48487 1.4842 12.0601 0.9571 1.114 1.7695 -6.36111e-015 7.95139e-016 -1.59028e-015 4.1246 0.486993 4.1451 -4.88733 4.53872 12.6178 3.4052 -1.454 2.7682 -36.3636 10.0331 17.8992 1.4531 -1.79499 1.2713 -37.4308 10.1383 18.481 5.6954 0.209988 2.1184 -1.58701 -0.577033 1.61796 3.9766 -1.53999 2.3863 -43.8285 12.1761 22.7531 1.4042 -1.926 1.125 -9.03146 4.06784 4.02299 2.0956 0.66 -0.3894 -6.36111e-015 7.95139e-016 -1.59028e-015 5.0395 -0.0900121 2.4971 -8.44089 -1.94821 5.79522 3.7921 -1.55199 1.4806 -14.2679 6.48286 7.41464 1.4655 -1.808 0.9609 -15.7292 7.01807 8.2348 4.9141 -1.269 0.359102 10.4038 -12.5936 2.33174 3.1477 -1.685 0.846201 -18.2187 8.51737 9.60863 0.805498 -1.58501 0.795499 -8.80555 4.59362 4.39817 -1.7069 20.075 5.0056 -21.1144 -0.0990712 -2.2251 -13.6458 -0.0470128 -4.849 57.901 -4.48105 77.1286 -28.3255 -0.975876 2.2888 -0.451123 -3.42569 33.6148 -22.1583 -0.530007 10.8316 4.69689 -8.18007 37.8722 -0.785999 0.112006 2.5817 -23.2934 46.7512 30.6779 -0.360104 -0.877997 4.2331 4.57599 -3.14006 12.9017 -1.8127 -1.216 2.2227 -7.05389 9.98964 -27.8099 -0.9571 1.114 1.7695 6.36111e-015 0 6.36111e-015 -4.12461 0.487011 4.1451 22.4326 7.18756 -14.4624 -3.4052 -1.45401 2.7682 39.327 10.0708 -9.22203 -1.4531 -1.795 1.2713 40.1701 10.2035 -9.48224 -5.6954 0.210002 2.1184 6.18727 0.992221 -2.02835 -3.9766 -1.54 2.3863 51.3578 13.422 -13.763 -1.4042 -1.926 1.125 14.2807 5.03456 -2.5871 -2.0956 0.66 -0.3894 6.36111e-015 0 6.36111e-015 -5.03951 -0.0899865 2.4971 13.5939 -0.619312 -5.16262 -3.7921 -1.55201 1.4806 20.0872 7.41465 -4.91539 -1.4655 -1.808 0.960902 21.6808 7.9092 -5.40317 -4.91411 -1.26899 0.359203 -10.8188 -10.1308 -6.16943 -3.1477 -1.68501 0.846198 20.7191 8.2683 -4.9613 -0.805499 -1.585 0.7955 10.5212 4.46527 -2.16973 8.367 -8.20659 0.598199 36.3168 -37.1198 15.4573 2.19231 -43.463 -0.493207 -0.0760164 23.5755 -0.525124 0.733304 -45.8593 -2.64509 -9.47556 13.9372 -15.143 -8.367 -8.2066 0.598199 -26.2279 -13.2919 -7.20865 -2.1923 -43.463 -0.493099 0.438061 -1.54387 4.47665 -0.733299 -45.8593 -2.64509 12.5969 18.2296 -3.02277 
-30.4585 17.7637 70.4618 10.5734 -65.1545 21.2957 9.03124e-007 -1.186 -1.5018 -0.0120337 -6.85758 0.377942 6.26792e-007 9.964 0.213401 0.0221168 -13.7152 0.762732 -1.06715e-006 13.134 -3.2573 0.0221177 -13.7152 0.762735 -1.22375e-006 20.686 -1.6905 0.546758 -1.44695 -5.12591 -7.99694e-007 7.23801 -0.123699 18.2342 4.88115 -1.20237 1.7069 20.075 5.0056 5.15889 -1.48543 -15.6845 13.6458 -0.0470166 -4.849 -58.3348 -2.87561 -56.4441 28.3255 -0.975885 2.2888 -24.8658 -25.4671 -76.8187 22.1583 -0.529984 10.8316 -4.27838 25.2569 -28.5226 0.786004 0.111996 2.5817 29.0016 36.8209 -34.7961 0.360098 -0.877998 4.2331 -6.33697 -0.117384 -11.5743 1.8127 -1.21601 2.2227 6.48486 1.48418 12.0601 0.9571 1.114 1.7695 -6.36111e-015 3.97569e-015 7.95139e-016 4.1246 0.486993 4.1451 -4.88734 4.5387 12.6178 3.4052 -1.454 2.7682 -36.3636 10.0331 17.8992 1.4531 -1.79499 1.2713 -37.4307 10.1383 18.481 5.6954 0.209989 2.1184 -1.58701 -0.577043 1.61795 3.9766 -1.53999 2.3863 -43.8285 12.1761 22.7531 1.4042 -1.926 1.125 -9.03147 4.06781 4.02299 2.0956 0.66 -0.3894 -6.36111e-015 3.97569e-015 7.95139e-016 5.0395 -0.0900122 2.4971 -8.4409 -1.94823 5.79521 3.7921 -1.55199 1.4806 -14.2679 6.48283 7.41464 1.4655 -1.808 0.960899 -15.7292 7.01804 8.2348 4.9141 -1.269 0.359103 10.4038 -12.5937 2.33173 3.1477 -1.685 0.846199 -18.2187 8.51732 9.60865 0.805498 -1.58501 0.795498 -8.80553 4.59362 4.39817 -1.7069 20.075 5.0056 -21.2567 -0.110955 -1.90852 -13.6458 -0.0470139 -4.849 57.822 -4.76357 77.371 -28.3255 -0.975876 2.2888 -0.188276 -3.84346 33.3847 -22.1583 -0.530008 10.8316 4.58582 -7.65649 37.9057 -0.786 0.112006 2.5817 -23.2934 46.7513 30.6779 -0.360102 -0.877993 4.2331 4.57599 -3.14005 12.9017 -1.8127 -1.216 2.2227 -7.05389 9.98963 -27.8099 -0.9571 1.114 1.7695 -1.76556e-031 3.18055e-015 3.18055e-015 -4.12461 0.487011 4.1451 22.4325 7.18759 -14.4624 -3.4052 -1.45401 2.7682 39.327 10.0708 -9.22204 -1.4531 -1.795 1.2713 40.1701 10.2035 -9.48224 -5.6954 0.210001 2.1184 6.18725 0.992241 -2.02835 -3.9766 -1.54 2.3863 51.3578 13.4221 -13.763 -1.4042 -1.926 1.125 14.2807 5.03455 -2.58711 -2.0956 0.66 -0.3894 -1.76556e-031 3.18055e-015 3.18055e-015 -5.03951 -0.0899875 2.4971 13.5939 -0.619322 -5.16262 -3.7921 -1.55201 1.4806 20.0871 7.41464 -4.91538 -1.4655 -1.808 0.960902 21.6808 7.90922 -5.40316 -4.91411 -1.26899 0.359204 -10.8188 -10.1308 -6.16944 -3.1477 -1.68501 0.8462 20.7191 8.26828 -4.96128 -0.805499 -1.585 0.795499 10.5212 4.46526 -2.16973 8.36701 -8.2066 0.598201 36.2442 -37.5234 15.3037 2.19231 -43.463 -0.493204 -0.15331 24.8332 -0.646251 0.73331 -45.8593 -2.64512 -9.64014 13.7547 -15.2449 -8.36701 -8.2066 0.598206 -25.7391 -12.8291 -7.03657 -2.1923 -43.463 -0.493099 0.270643 -2.32762 4.49183 -0.733302 -45.8593 -2.6451 12.6541 18.9628 -2.93082 
-30.3658 17.709 70.5799 10.8562 -65.4246 21.4171 -5.34443e-007 -1.186 -1.5018 0.053893 -6.74391 0.388157 3.97074e-007 9.964 0.213399 0.155789 -13.4873 0.791077 1.35085e-006 13.134 -3.2573 0.155788 -13.4874 0.79108 1.28635e-006 20.686 -1.6905 0.594626 -1.89041 -4.80467 5.71649e-006 7.23802 -0.123696 18.5016 4.81753 -0.957573 1.7069 20.075 5.0056 5.11633 -1.48976 -15.8542 13.6458 -0.047013 -4.849 -58.2927 -2.97993 -56.6595 28.3255 -0.975887 2.2888 -25.4107 -26.0177 -77.3164 22.1583 -0.529979 10.8316 -4.38804 25.949 -28.2691 0.786004 0.111997 2.5817 29.0017 36.821 -34.7961 0.360097 -0.877999 4.2331 -6.33698 -0.117379 -11.5743 1.8127 -1.21601 2.2227 6.48486 1.48416 12.0602 0.9571 1.114 1.7695 -0 -1.98785e-015 -0 4.1246 0.486993 4.1451 -4.88735 4.53871 12.6178 3.4052 -1.45401 2.7682 -36.3636 10.033 17.8992 1.4531 -1.79499 1.2713 -37.4308 10.1383 18.481 5.6954 0.209988 2.1184 -1.58701 -0.577049 1.61796 3.9766 -1.53999 2.3863 -43.8285 12.1761 22.7531 1.4042 -1.926 1.125 -9.03147 4.06778 4.023 2.0956 0.66 -0.3894 -0 -1.98785e-015 -0 5.0395 -0.0900116 2.4971 -8.44092 -1.94825 5.79522 3.7921 -1.55199 1.4806 -14.2679 6.48281 7.41466 1.4655 -1.808 0.960899 -15.7292 7.01805 8.2348 4.9141 -1.269 0.359102 10.4038 -12.5937 2.33174 3.1477 -1.685 0.846201 -18.2187 8.51729 9.60864 0.805499 -1.58501 0.795498 -8.80552 4.59359 4.39819 -1.7069 20.075 5.0056 -21.402 -0.124132 -1.54002 -13.6458 -0.0470128 -4.849 57.6852 -5.16001 77.65 -28.3255 -0.975885 2.2888 0.305636 -4.38627 33.2504 -22.1583 -0.530004 10.8316 4.38182 -6.94377 37.8349 -0.786001 0.112005 2.5817 -23.2934 46.7513 30.678 -0.360103 -0.877993 4.2331 4.57598 -3.14005 12.9017 -1.81269 -1.216 2.2227 -7.0539 9.98963 -27.8099 -0.9571 1.114 1.7695 -6.36111e-015 -1.59028e-015 -4.77083e-015 -4.12461 0.487012 4.1451 22.4326 7.1876 -14.4624 -3.4052 -1.45401 2.7682 39.3269 10.0708 -9.22205 -1.4531 -1.795 1.2713 40.1701 10.2034 -9.48222 -5.6954 0.210002 2.1184 6.18727 0.992267 -2.02836 -3.9766 -1.54 2.3863 51.3578 13.422 -13.763 -1.4042 -1.926 1.125 14.2807 5.03454 -2.5871 -2.0956 0.66 -0.3894 -6.36111e-015 -1.59028e-015 -4.77083e-015 -5.03951 -0.0899871 2.4971 13.594 -0.619331 -5.16263 -3.7921 -1.55201 1.4806 20.0871 7.41469 -4.91537 -1.4655 -1.808 0.9609 21.6807 7.90923 -5.40315 -4.91411 -1.26899 0.359203 -10.8188 -10.1308 -6.16944 -3.1477 -1.68501 0.846198 20.7191 8.26829 -4.96129 -0.805499 -1.585 0.795501 10.5212 4.46527 -2.16973 8.367 -8.2066 0.598199 36.1684 -38.1589 15.1237 2.19231 -43.463 -0.493196 -0.269136 26.5982 -0.749078 0.733307 -45.8593 -2.6451 -9.7287 13.3832 -15.4233 -8.367 -8.20659 0.598199 -25.3149 -12.6944 -6.85316 -2.1923 -43.463 -0.493109 0.126368 -2.53428 4.457 -0.733311 -45.8593 -2.64511 12.6966 19.1161 -3.5696 
